<svg width="16" height="16" viewBox="0 0 16 16" fill="none" xmlns="http://www.w3.org/2000/svg">
<path d="M12.875 12.5625H3.125C3.05625 12.5625 3 12.6156 3 12.6812V13.6313C3 13.6969 3.05625 13.75 3.125 13.75H12.875C12.9438 13.75 13 13.6969 13 13.6313V12.6812C13 12.6156 12.9438 12.5625 12.875 12.5625ZM8 11.375C9.08437 11.375 10.1031 10.9516 10.8719 10.1844C11.6406 9.41719 12.0625 8.39687 12.0625 7.3125V2.4375C12.0625 2.33438 11.9781 2.25 11.875 2.25H10.9375C10.8344 2.25 10.75 2.33438 10.75 2.4375V7.3125C10.75 8.82812 9.51562 10.0625 8 10.0625C6.48438 10.0625 5.25 8.82812 5.25 7.3125V2.4375C5.25 2.33438 5.16563 2.25 5.0625 2.25H4.125C4.02188 2.25 3.9375 2.33438 3.9375 2.4375V7.3125C3.9375 8.39687 4.36094 9.41562 5.12813 10.1844C5.89531 10.9531 6.91563 11.375 8 11.375Z" fill="#424242"/>
</svg>
