<svg width="16" height="16" viewBox="0 0 16 16" fill="none" xmlns="http://www.w3.org/2000/svg">
<path d="M4.33343 6.66665C4.18476 6.66665 4.0421 6.68931 3.9001 6.70998C3.9461 6.55531 3.99343 6.39798 4.06943 6.25665C4.14543 6.05131 4.2641 5.87331 4.3821 5.69398C4.48076 5.49998 4.65476 5.36865 4.78276 5.20265C4.91676 5.04131 5.09943 4.93398 5.2441 4.79998C5.3861 4.65998 5.5721 4.58998 5.7201 4.49131C5.87476 4.40265 6.00943 4.30465 6.15343 4.25798L6.51276 4.10998L6.82876 3.97865L6.50543 2.68665L6.10743 2.78265C5.9801 2.81465 5.82476 2.85198 5.6481 2.89665C5.46743 2.92998 5.27476 3.02131 5.0601 3.10465C4.8481 3.19931 4.60276 3.26331 4.37476 3.41531C4.14543 3.56065 3.88076 3.68198 3.64743 3.87665C3.42143 4.07731 3.14876 4.25131 2.94743 4.50665C2.72743 4.74531 2.5101 4.99598 2.34143 5.28131C2.1461 5.55331 2.01343 5.85198 1.87343 6.14731C1.74676 6.44265 1.64476 6.74465 1.56143 7.03798C1.40343 7.62598 1.33276 8.18465 1.30543 8.66265C1.28276 9.14131 1.2961 9.53931 1.3241 9.82731C1.3341 9.96331 1.35276 10.0953 1.3661 10.1866L1.38276 10.2986L1.4001 10.2946C1.51867 10.8485 1.79163 11.3575 2.18741 11.7628C2.58318 12.168 3.08559 12.4529 3.63652 12.5845C4.18746 12.7162 4.76439 12.6891 5.3006 12.5065C5.83681 12.324 6.31037 11.9933 6.6665 11.5528C7.02264 11.1124 7.24679 10.5801 7.31304 10.0175C7.37929 9.45496 7.28492 8.88515 7.04085 8.37399C6.79678 7.86284 6.41299 7.43122 5.93387 7.12908C5.45474 6.82693 4.89987 6.66661 4.33343 6.66665V6.66665ZM11.6668 6.66665C11.5181 6.66665 11.3754 6.68931 11.2334 6.70998C11.2794 6.55531 11.3268 6.39798 11.4028 6.25665C11.4788 6.05131 11.5974 5.87331 11.7154 5.69398C11.8141 5.49998 11.9881 5.36865 12.1161 5.20265C12.2501 5.04131 12.4328 4.93398 12.5774 4.79998C12.7194 4.65998 12.9054 4.58998 13.0534 4.49131C13.2081 4.40265 13.3428 4.30465 13.4868 4.25798L13.8461 4.10998L14.1621 3.97865L13.8388 2.68665L13.4408 2.78265C13.3134 2.81465 13.1581 2.85198 12.9814 2.89665C12.8008 2.92998 12.6081 3.02131 12.3934 3.10465C12.1821 3.19998 11.9361 3.26331 11.7081 3.41598C11.4788 3.56131 11.2141 3.68265 10.9808 3.87731C10.7548 4.07798 10.4821 4.25198 10.2808 4.50665C10.0608 4.74531 9.84343 4.99598 9.67476 5.28131C9.47943 5.55331 9.34676 5.85198 9.20676 6.14731C9.0801 6.44265 8.9781 6.74465 8.89476 7.03798C8.73676 7.62598 8.6661 8.18465 8.63876 8.66265C8.6161 9.14131 8.62943 9.53931 8.65743 9.82731C8.66743 9.96331 8.6861 10.0953 8.69943 10.1866L8.7161 10.2986L8.73343 10.2946C8.852 10.8485 9.12497 11.3575 9.52074 11.7628C9.91651 12.168 10.4189 12.4529 10.9699 12.5845C11.5208 12.7162 12.0977 12.6891 12.6339 12.5065C13.1701 12.324 13.6437 11.9933 13.9998 11.5528C14.356 11.1124 14.5801 10.5801 14.6464 10.0175C14.7126 9.45496 14.6183 8.88515 14.3742 8.37399C14.1301 7.86284 13.7463 7.43122 13.2672 7.12908C12.7881 6.82693 12.2332 6.66661 11.6668 6.66665V6.66665Z" fill="#424242"/>
</svg>
