<svg width="23" height="26" viewBox="0 0 23 26" fill="none" xmlns="http://www.w3.org/2000/svg">
<path d="M0.482422 22.9552C0.482422 24.2461 1.52968 25.2933 2.82048 25.2933H19.9663C21.2571 25.2933 22.3043 24.2461 22.3043 22.9552V9.70624H0.482422V22.9552ZM16.0695 13.4082C16.0695 13.0867 16.3325 12.8237 16.654 12.8237H18.6024C18.9239 12.8237 19.1869 13.0867 19.1869 13.4082V15.3566C19.1869 15.678 18.9239 15.9411 18.6024 15.9411H16.654C16.3325 15.9411 16.0695 15.678 16.0695 15.3566V13.4082ZM16.0695 19.643C16.0695 19.3215 16.3325 19.0585 16.654 19.0585H18.6024C18.9239 19.0585 19.1869 19.3215 19.1869 19.643V21.5914C19.1869 21.9129 18.9239 22.1759 18.6024 22.1759H16.654C16.3325 22.1759 16.0695 21.9129 16.0695 21.5914V19.643ZM9.83466 13.4082C9.83466 13.0867 10.0977 12.8237 10.4192 12.8237H12.3676C12.689 12.8237 12.9521 13.0867 12.9521 13.4082V15.3566C12.9521 15.678 12.689 15.9411 12.3676 15.9411H10.4192C10.0977 15.9411 9.83466 15.678 9.83466 15.3566V13.4082ZM9.83466 19.643C9.83466 19.3215 10.0977 19.0585 10.4192 19.0585H12.3676C12.689 19.0585 12.9521 19.3215 12.9521 19.643V21.5914C12.9521 21.9129 12.689 22.1759 12.3676 22.1759H10.4192C10.0977 22.1759 9.83466 21.9129 9.83466 21.5914V19.643ZM3.59983 13.4082C3.59983 13.0867 3.86287 12.8237 4.18435 12.8237H6.13273C6.45422 12.8237 6.71725 13.0867 6.71725 13.4082V15.3566C6.71725 15.678 6.45422 15.9411 6.13273 15.9411H4.18435C3.86287 15.9411 3.59983 15.678 3.59983 15.3566V13.4082ZM3.59983 19.643C3.59983 19.3215 3.86287 19.0585 4.18435 19.0585H6.13273C6.45422 19.0585 6.71725 19.3215 6.71725 19.643V21.5914C6.71725 21.9129 6.45422 22.1759 6.13273 22.1759H4.18435C3.86287 22.1759 3.59983 21.9129 3.59983 21.5914V19.643ZM19.9663 3.47142H17.6282V1.13336C17.6282 0.704713 17.2775 0.354004 16.8488 0.354004H15.2901C14.8615 0.354004 14.5108 0.704713 14.5108 1.13336V3.47142H8.27595V1.13336C8.27595 0.704713 7.92525 0.354004 7.4966 0.354004H5.93789C5.50925 0.354004 5.15854 0.704713 5.15854 1.13336V3.47142H2.82048C1.52968 3.47142 0.482422 4.51867 0.482422 5.80948V8.14754H22.3043V5.80948C22.3043 4.51867 21.2571 3.47142 19.9663 3.47142Z" fill="#424242"/>
</svg>
