<svg width="19" height="19" viewBox="0 0 19 19" fill="none" xmlns="http://www.w3.org/2000/svg">
<path d="M14.778 15.8334H3.16688V4.2223H10.1441L11.1997 3.16675H3.16688C2.88693 3.16675 2.61845 3.27796 2.42049 3.47591C2.22254 3.67387 2.11133 3.94235 2.11133 4.2223V15.8334C2.11133 16.1134 2.22254 16.3819 2.42049 16.5798C2.61845 16.7778 2.88693 16.889 3.16688 16.889H14.778C15.0579 16.889 15.3264 16.7778 15.5244 16.5798C15.7223 16.3819 15.8336 16.1134 15.8336 15.8334V7.91675L14.778 8.9723V15.8334Z" fill="#9F9F9F"/>
<path d="M17.6965 3.08227L15.9179 1.30366C15.839 1.22451 15.7452 1.16171 15.642 1.11886C15.5387 1.07601 15.428 1.05396 15.3163 1.05396C15.2045 1.05396 15.0938 1.07601 14.9906 1.11886C14.8873 1.16171 14.7935 1.22451 14.7146 1.30366L7.47877 8.58171L6.89293 11.1203C6.86797 11.2434 6.8706 11.3704 6.90061 11.4924C6.93063 11.6143 6.9873 11.728 7.06653 11.8254C7.14577 11.9228 7.2456 12.0015 7.35886 12.0557C7.47212 12.1099 7.59598 12.1383 7.72154 12.1389C7.78644 12.1461 7.85192 12.1461 7.91682 12.1389L10.4765 11.5742L17.6965 4.2856C17.7757 4.20667 17.8385 4.11289 17.8813 4.00965C17.9242 3.9064 17.9462 3.79572 17.9462 3.68393C17.9462 3.57215 17.9242 3.46147 17.8813 3.35822C17.8385 3.25498 17.7757 3.1612 17.6965 3.08227ZM9.92765 10.5978L7.99599 11.0253L8.4446 9.10949L13.8913 3.62588L15.3796 5.11421L9.92765 10.5978ZM15.976 4.51782L14.4877 3.02949L15.3057 2.1956L16.8046 3.69449L15.976 4.51782Z" fill="#9F9F9F"/>
</svg>
