<svg width="16" height="16" viewBox="0 0 16 16" fill="none" xmlns="http://www.w3.org/2000/svg">
<path d="M10.3998 8.80005V3.20005C10.3998 2.76005 10.0398 2.40005 9.5998 2.40005H8.2638L7.1998 0.800049H3.9998L2.9358 2.40005H1.5998C1.1598 2.40005 0.799805 2.76005 0.799805 3.20005V8.80005C0.799805 9.24005 1.1598 9.60005 1.5998 9.60005H9.5998C10.0398 9.60005 10.3998 9.24005 10.3998 8.80005ZM5.5998 3.60005C6.13024 3.60005 6.63895 3.81076 7.01402 4.18584C7.38909 4.56091 7.5998 5.06962 7.5998 5.60005C7.5998 6.13048 7.38909 6.63919 7.01402 7.01426C6.63895 7.38934 6.13024 7.60005 5.5998 7.60005C5.06937 7.60005 4.56066 7.38934 4.18559 7.01426C3.81052 6.63919 3.5998 6.13048 3.5998 5.60005C3.5998 5.06962 3.81052 4.56091 4.18559 4.18584C4.56066 3.81076 5.06937 3.60005 5.5998 3.60005ZM11.1998 4.80005H15.1998V13.2C15.1998 13.7305 14.9891 14.2392 14.614 14.6143C14.2389 14.9893 13.7302 15.2 13.1998 15.2C12.6694 15.2 12.1607 14.9893 11.7856 14.6143C11.4105 14.2392 11.1998 13.7305 11.1998 13.2C11.1997 12.9034 11.2657 12.6105 11.3928 12.3425C11.5199 12.0746 11.705 11.8382 11.9347 11.6506C12.1645 11.463 12.4331 11.3288 12.721 11.2578C13.009 11.1868 13.3092 11.1807 13.5998 11.24V7.20005H11.1998V4.80005ZM7.9998 11.24V10.4H9.5998V13.2C9.5998 13.7305 9.38909 14.2392 9.01402 14.6143C8.63895 14.9893 8.13024 15.2 7.5998 15.2C7.06937 15.2 6.56066 14.9893 6.18559 14.6143C5.81052 14.2392 5.5998 13.7305 5.5998 13.2C5.59974 12.9034 5.66566 12.6105 5.79277 12.3425C5.91988 12.0746 6.105 11.8382 6.33474 11.6506C6.56447 11.463 6.83305 11.3288 7.12104 11.2578C7.40902 11.1868 7.70919 11.1807 7.9998 11.24Z" fill="#424242"/>
</svg>
