<svg width="27" height="24" viewBox="0 0 27 24" fill="none" xmlns="http://www.w3.org/2000/svg">
<g clip-path="url(#clip0_101_587)">
<path fill-rule="evenodd" clip-rule="evenodd" d="M2.24841 1.75C2.06954 1.75 1.91691 1.88552 1.91691 2.06137V21.9387C1.91691 22.1145 2.06953 22.25 2.24841 22.25H23.826C24.0049 22.25 24.1575 22.1145 24.1575 21.9387V2.06137C24.1575 1.88552 24.0049 1.75 23.826 1.75H2.24841ZM0.289551 2.06137C0.289551 1.06486 1.16236 0.25 2.24841 0.25H23.826C24.912 0.25 25.7848 1.06486 25.7848 2.06137V21.9387C25.7848 22.9351 24.912 23.75 23.826 23.75H2.24841C1.16236 23.75 0.289551 22.9351 0.289551 21.9387V2.06137Z" fill="#424242"/>
<path fill-rule="evenodd" clip-rule="evenodd" d="M20.9907 8.94348H18.6288H18.3497C17.6174 8.94348 17.0238 9.49068 17.0238 10.1657V12.6109H20.9907L20.4097 16.2763H17.0238V23H12.6614V16.2763H9.05957V12.6109H12.6148L12.6614 9.13168L12.6483 7.88468C12.63 6.12383 14.1638 4.68271 16.0741 4.6658C16.0852 4.6657 16.0962 4.66565 16.1073 4.66565H20.9907V8.94348Z" fill="#424242"/>
</g>
<defs>
<clipPath id="clip0_101_587">
<rect width="26.0378" height="24" fill="white" transform="translate(0.0185547)"/>
</clipPath>
</defs>
</svg>
