<svg width="16" height="16" viewBox="0 0 16 16" fill="none" xmlns="http://www.w3.org/2000/svg">
<path d="M3.5715 1.71423C3.07895 1.71423 2.60658 1.9099 2.2583 2.25818C1.91002 2.60646 1.71436 3.07883 1.71436 3.57138V12.4285C1.71436 12.9211 1.91002 13.3934 2.2583 13.7417C2.60658 14.09 3.07895 14.2857 3.5715 14.2857H12.4286C12.9212 14.2857 13.3936 14.09 13.7418 13.7417C14.0901 13.3934 14.2858 12.9211 14.2858 12.4285V3.57138C14.2858 3.07883 14.0901 2.60646 13.7418 2.25818C13.3936 1.9099 12.9212 1.71423 12.4286 1.71423H3.5715ZM2.5715 3.57138C2.5715 3.01938 3.0195 2.57138 3.5715 2.57138H12.4286C12.9806 2.57138 13.4286 3.01938 13.4286 3.57138V12.4285C13.4286 12.6937 13.3233 12.9481 13.1357 13.1356C12.9482 13.3232 12.6939 13.4285 12.4286 13.4285H3.5715C3.30628 13.4285 3.05193 13.3232 2.86439 13.1356C2.67686 12.9481 2.5715 12.6937 2.5715 12.4285V3.57138ZM4.28578 7.14281C4.28578 6.99125 4.34599 6.84591 4.45315 6.73874C4.56032 6.63158 4.70566 6.57138 4.85721 6.57138C5.00876 6.57138 5.15411 6.63158 5.26127 6.73874C5.36844 6.84591 5.42864 6.99125 5.42864 7.14281C5.42864 7.29436 5.36844 7.4397 5.26127 7.54687C5.15411 7.65403 5.00876 7.71423 4.85721 7.71423C4.70566 7.71423 4.56032 7.65403 4.45315 7.54687C4.34599 7.4397 4.28578 7.29436 4.28578 7.14281ZM4.85721 5.71423C4.47833 5.71423 4.11497 5.86474 3.84706 6.13265C3.57915 6.40056 3.42864 6.76392 3.42864 7.14281C3.42864 7.52169 3.57915 7.88505 3.84706 8.15296C4.11497 8.42087 4.47833 8.57138 4.85721 8.57138C5.23609 8.57138 5.59946 8.42087 5.86737 8.15296C6.13527 7.88505 6.28578 7.52169 6.28578 7.14281C6.28578 6.76392 6.13527 6.40056 5.86737 6.13265C5.59946 5.86474 5.23609 5.71423 4.85721 5.71423ZM4.85721 10.5714C4.70566 10.5714 4.56032 10.6316 4.45315 10.7387C4.34599 10.8459 4.28578 10.9913 4.28578 11.1428C4.28578 11.2944 4.34599 11.4397 4.45315 11.5469C4.56032 11.654 4.70566 11.7142 4.85721 11.7142C5.00876 11.7142 5.15411 11.654 5.26127 11.5469C5.36844 11.4397 5.42864 11.2944 5.42864 11.1428C5.42864 10.9913 5.36844 10.8459 5.26127 10.7387C5.15411 10.6316 5.00876 10.5714 4.85721 10.5714ZM3.42864 11.1428C3.42864 10.7639 3.57915 10.4006 3.84706 10.1327C4.11497 9.86474 4.47833 9.71423 4.85721 9.71423C5.23609 9.71423 5.59946 9.86474 5.86737 10.1327C6.13527 10.4006 6.28578 10.7639 6.28578 11.1428C6.28578 11.5217 6.13527 11.885 5.86737 12.153C5.59946 12.4209 5.23609 12.5714 4.85721 12.5714C4.47833 12.5714 4.11497 12.4209 3.84706 12.153C3.57915 11.885 3.42864 11.5217 3.42864 11.1428ZM7.28578 6.57138C7.17212 6.57138 7.06311 6.61653 6.98274 6.6969C6.90237 6.77728 6.85721 6.88628 6.85721 6.99995C6.85721 7.11361 6.90237 7.22262 6.98274 7.30299C7.06311 7.38337 7.17212 7.42852 7.28578 7.42852H12.1429C12.2566 7.42852 12.3656 7.38337 12.446 7.30299C12.5263 7.22262 12.5715 7.11361 12.5715 6.99995C12.5715 6.88628 12.5263 6.77728 12.446 6.6969C12.3656 6.61653 12.2566 6.57138 12.1429 6.57138H7.28578ZM6.85721 10.9999C6.85721 10.8863 6.90237 10.7773 6.98274 10.6969C7.06311 10.6165 7.17212 10.5714 7.28578 10.5714H12.1429C12.2566 10.5714 12.3656 10.6165 12.446 10.6969C12.5263 10.7773 12.5715 10.8863 12.5715 10.9999C12.5715 11.1136 12.5263 11.2226 12.446 11.303C12.3656 11.3834 12.2566 11.4285 12.1429 11.4285H7.28578C7.17212 11.4285 7.06311 11.3834 6.98274 11.303C6.90237 11.2226 6.85721 11.1136 6.85721 10.9999ZM3.85721 3.42852C3.74355 3.42852 3.63454 3.47367 3.55417 3.55404C3.47379 3.63442 3.42864 3.74343 3.42864 3.85709C3.42864 3.97075 3.47379 4.07976 3.55417 4.16014C3.63454 4.24051 3.74355 4.28566 3.85721 4.28566H12.1429C12.2566 4.28566 12.3656 4.24051 12.446 4.16014C12.5263 4.07976 12.5715 3.97075 12.5715 3.85709C12.5715 3.74343 12.5263 3.63442 12.446 3.55404C12.3656 3.47367 12.2566 3.42852 12.1429 3.42852H3.85721Z" fill="#424242"/>
</svg>
