<svg width="16" height="16" viewBox="0 0 16 16" fill="none" xmlns="http://www.w3.org/2000/svg">
<path d="M2 4.5C2.26522 4.5 2.51957 4.39464 2.70711 4.20711C2.89464 4.01957 3 3.76522 3 3.5C3 3.23478 2.89464 2.98043 2.70711 2.79289C2.51957 2.60536 2.26522 2.5 2 2.5C1.73478 2.5 1.48043 2.60536 1.29289 2.79289C1.10536 2.98043 1 3.23478 1 3.5C1 3.76522 1.10536 4.01957 1.29289 4.20711C1.48043 4.39464 1.73478 4.5 2 4.5ZM2 9C2.26522 9 2.51957 8.89464 2.70711 8.70711C2.89464 8.51957 3 8.26522 3 8C3 7.73478 2.89464 7.48043 2.70711 7.29289C2.51957 7.10536 2.26522 7 2 7C1.73478 7 1.48043 7.10536 1.29289 7.29289C1.10536 7.48043 1 7.73478 1 8C1 8.26522 1.10536 8.51957 1.29289 8.70711C1.48043 8.89464 1.73478 9 2 9ZM3 12.5C3 12.7652 2.89464 13.0196 2.70711 13.2071C2.51957 13.3946 2.26522 13.5 2 13.5C1.73478 13.5 1.48043 13.3946 1.29289 13.2071C1.10536 13.0196 1 12.7652 1 12.5C1 12.2348 1.10536 11.9804 1.29289 11.7929C1.48043 11.6054 1.73478 11.5 2 11.5C2.26522 11.5 2.51957 11.6054 2.70711 11.7929C2.89464 11.9804 3 12.2348 3 12.5ZM5.5 3C5.36739 3 5.24021 3.05268 5.14645 3.14645C5.05268 3.24021 5 3.36739 5 3.5C5 3.63261 5.05268 3.75979 5.14645 3.85355C5.24021 3.94732 5.36739 4 5.5 4H14.5C14.6326 4 14.7598 3.94732 14.8536 3.85355C14.9473 3.75979 15 3.63261 15 3.5C15 3.36739 14.9473 3.24021 14.8536 3.14645C14.7598 3.05268 14.6326 3 14.5 3H10H5.5ZM5 8C5 7.86739 5.05268 7.74021 5.14645 7.64645C5.24021 7.55268 5.36739 7.5 5.5 7.5H14.5C14.6326 7.5 14.7598 7.55268 14.8536 7.64645C14.9473 7.74021 15 7.86739 15 8C15 8.13261 14.9473 8.25979 14.8536 8.35355C14.7598 8.44732 14.6326 8.5 14.5 8.5H5.5C5.36739 8.5 5.24021 8.44732 5.14645 8.35355C5.05268 8.25979 5 8.13261 5 8ZM5.5 12C5.36739 12 5.24021 12.0527 5.14645 12.1464C5.05268 12.2402 5 12.3674 5 12.5C5 12.6326 5.05268 12.7598 5.14645 12.8536C5.24021 12.9473 5.36739 13 5.5 13H14.5C14.6326 13 14.7598 12.9473 14.8536 12.8536C14.9473 12.7598 15 12.6326 15 12.5C15 12.3674 14.9473 12.2402 14.8536 12.1464C14.7598 12.0527 14.6326 12 14.5 12H5.5Z" fill="#424242"/>
</svg>
