<svg width="16" height="16" viewBox="0 0 16 16" fill="none" xmlns="http://www.w3.org/2000/svg">
<path d="M10.0368 7.85739C10.8923 7.68091 11.5984 6.90699 11.5984 5.77979C11.5984 4.57131 10.7157 3.47131 8.99118 3.47131H4.64174C4.53124 3.47131 4.42526 3.51521 4.34713 3.59334C4.26899 3.67148 4.2251 3.77745 4.2251 3.88795V12.1118C4.2251 12.2223 4.26899 12.3283 4.34713 12.4064C4.42526 12.4845 4.53124 12.5284 4.64174 12.5284H9.14062C10.8787 12.5284 11.7749 11.442 11.7749 10.0707C11.775 8.94379 11.0145 8.00667 10.0368 7.85739ZM6.15326 5.16875H8.57038C9.22222 5.16875 9.62958 5.56251 9.62958 6.11915C9.62958 6.70299 9.22222 7.06971 8.57038 7.06971H6.15326V5.16875ZM8.65166 10.8312H6.15326V8.76715H8.65182C9.3987 8.76715 9.80606 9.22891 9.80606 9.79915C9.80606 10.451 9.3715 10.8312 8.65166 10.8312Z" fill="#424242"/>
</svg>
