<svg width="16" height="16" viewBox="0 0 16 16" fill="none" xmlns="http://www.w3.org/2000/svg">
<path d="M2 4.5C2.26522 4.5 2.51957 4.39464 2.70711 4.20711C2.89464 4.01957 3 3.76522 3 3.5C3 3.23478 2.89464 2.98043 2.70711 2.79289C2.51957 2.60536 2.26522 2.5 2 2.5C1.73478 2.5 1.48043 2.60536 1.29289 2.79289C1.10536 2.98043 1 3.23478 1 3.5C1 3.76522 1.10536 4.01957 1.29289 4.20711C1.48043 4.39464 1.73478 4.5 2 4.5ZM2 9C2.26522 9 2.51957 8.89464 2.70711 8.70711C2.89464 8.51957 3 8.26522 3 8C3 7.73478 2.89464 7.48043 2.70711 7.29289C2.51957 7.10536 2.26522 7 2 7C1.73478 7 1.48043 7.10536 1.29289 7.29289C1.10536 7.48043 1 7.73478 1 8C1 8.26522 1.10536 8.51957 1.29289 8.70711C1.48043 8.89464 1.73478 9 2 9ZM3 12.5C3 12.7652 2.89464 13.0196 2.70711 13.2071C2.51957 13.3946 2.26522 13.5 2 13.5C1.73478 13.5 1.48043 13.3946 1.29289 13.2071C1.10536 13.0196 1 12.7652 1 12.5C1 12.2348 1.10536 11.9804 1.29289 11.7929C1.48043 11.6054 1.73478 11.5 2 11.5C2.26522 11.5 2.51957 11.6054 2.70711 11.7929C2.89464 11.9804 3 12.2348 3 12.5ZM5.5 3C5.36739 3 5.24021 3.05268 5.14645 3.14645C5.05268 3.24021 5 3.36739 5 3.5C5 3.63261 5.05268 3.75979 5.14645 3.85355C5.24021 3.94732 5.36739 4 5.5 4H14.5C14.6326 4 14.7598 3.94732 14.8536 3.85355C14.9473 3.75979 15 3.63261 15 3.5C15 3.36739 14.9473 3.24021 14.8536 3.14645C14.7598 3.05268 14.6326 3 14.5 3H10H5.5ZM5 8C5 7.86739 5.05268 7.74021 5.14645 7.64645C5.24021 7.55268 5.36739 7.5 5.5 7.5H14.5C14.6326 7.5 14.7598 7.55268 14.8536 7.64645C14.9473 7.74021 15 7.86739 15 8C15 8.13261 14.9473 8.25979 14.8536 8.35355C14.7598 8.44732 14.6326 8.5 14.5 8.5H5.5C5.36739 8.5 5.24021 8.44732 5.14645 8.35355C5.05268 8.25979 5 8.13261 5 8ZM5.5 12C5.36739 12 5.24021 12.0527 5.14645 12.1464C5.05268 12.2402 5 12.3674 5 12.5C5 12.6326 5.05268 12.7598 5.14645 12.8536C5.24021 12.9473 5.36739 13 5.5 13H14.5C14.6326 13 14.7598 12.9473 14.8536 12.8536C14.9473 12.7598 15 12.6326 15 12.5C15 12.3674 14.9473 12.2402 14.8536 12.1464C14.7598 12.0527 14.6326 12 14.5 12H5.5Z" fill="#424242"/>
<path d="M2.04139 3.49686V4.46655H1.92396V3.61996H1.91828L1.68154 3.77716V3.65784L1.92396 3.49686H2.04139Z" fill="white"/>
<path d="M1.70048 9V8.91477L2.02055 8.56439C2.05812 8.52336 2.08905 8.48769 2.11336 8.45739C2.13766 8.42677 2.15565 8.39804 2.16733 8.37121C2.17933 8.34407 2.18532 8.31566 2.18532 8.28598C2.18532 8.25189 2.17712 8.22238 2.1607 8.19744C2.14461 8.17251 2.12251 8.15325 2.09442 8.13968C2.06632 8.1261 2.03476 8.11932 1.99972 8.11932C1.96247 8.11932 1.92996 8.12705 1.90218 8.14252C1.87472 8.15767 1.85341 8.17898 1.83826 8.20644C1.82342 8.2339 1.81601 8.2661 1.81601 8.30303H1.70426C1.70426 8.24621 1.71736 8.19634 1.74356 8.15341C1.76976 8.11048 1.80543 8.07702 1.85057 8.05303C1.89603 8.02904 1.947 8.01705 2.00351 8.01705C2.06032 8.01705 2.11067 8.02904 2.15455 8.05303C2.19842 8.07702 2.23283 8.10937 2.25777 8.15009C2.2827 8.19081 2.29517 8.23611 2.29517 8.28598C2.29517 8.32165 2.2887 8.35653 2.27576 8.39062C2.26313 8.4244 2.24104 8.46212 2.20947 8.50379C2.17822 8.54514 2.13482 8.59564 2.07926 8.6553L1.86146 8.88826V8.89583H2.31222V9H1.70048Z" fill="white"/>
<path d="M2.02813 13.5467C1.96563 13.5467 1.90991 13.536 1.86099 13.5145C1.81238 13.493 1.77371 13.4632 1.74498 13.425C1.71657 13.3865 1.70111 13.3418 1.69858 13.291H1.8179C1.82043 13.3223 1.83116 13.3493 1.8501 13.372C1.86904 13.3944 1.89382 13.4118 1.92443 13.4241C1.95505 13.4364 1.98899 13.4425 2.02623 13.4425C2.0679 13.4425 2.10483 13.4353 2.13703 13.4208C2.16923 13.4062 2.19448 13.386 2.21279 13.3602C2.2311 13.3343 2.24025 13.3043 2.24025 13.2702C2.24025 13.2345 2.23141 13.2031 2.21373 13.176C2.19606 13.1485 2.17017 13.127 2.13608 13.1116C2.10199 13.0961 2.06032 13.0884 2.01108 13.0884H1.93343V12.9842H2.01108C2.04959 12.9842 2.08337 12.9773 2.11241 12.9634C2.14176 12.9495 2.16465 12.9299 2.18106 12.9047C2.19779 12.8794 2.20616 12.8497 2.20616 12.8156C2.20616 12.7828 2.1989 12.7542 2.18438 12.7299C2.16986 12.7056 2.14934 12.6867 2.12282 12.6731C2.09663 12.6596 2.06569 12.6528 2.03002 12.6528C1.99656 12.6528 1.965 12.6589 1.93532 12.6712C1.90597 12.6832 1.88198 12.7007 1.86336 12.7238C1.84473 12.7465 1.83463 12.774 1.83305 12.8062H1.71942C1.72131 12.7554 1.73662 12.7108 1.76534 12.6727C1.79407 12.6341 1.83163 12.6042 1.87803 12.5827C1.92475 12.5612 1.97604 12.5505 2.03192 12.5505C2.09189 12.5505 2.14334 12.5626 2.18627 12.587C2.2292 12.6109 2.26219 12.6427 2.28523 12.6821C2.30827 12.7216 2.31979 12.7642 2.31979 12.81C2.31979 12.8646 2.30543 12.9111 2.27671 12.9496C2.2483 12.9882 2.20963 13.0148 2.1607 13.0297V13.0372C2.22194 13.0473 2.26976 13.0734 2.30417 13.1154C2.33858 13.157 2.35578 13.2086 2.35578 13.2702C2.35578 13.3229 2.34142 13.3703 2.31269 13.4122C2.28428 13.4539 2.24546 13.4867 2.19622 13.5107C2.14697 13.5347 2.09094 13.5467 2.02813 13.5467Z" fill="white"/>
</svg>
