<svg width="24" height="25" viewBox="0 0 24 25" fill="none" xmlns="http://www.w3.org/2000/svg">
<path d="M18.9998 9.30328L13.6668 5.15527C13.1988 4.79118 12.6227 4.59351 12.0298 4.59351C11.4368 4.59351 10.8608 4.79118 10.3928 5.15527L5.05879 9.30328C4.73823 9.55256 4.47888 9.8718 4.30054 10.2366C4.1222 10.6014 4.02959 11.0022 4.02979 11.4083V18.6083C4.02979 19.1387 4.2405 19.6474 4.61557 20.0225C4.99064 20.3976 5.49935 20.6083 6.02979 20.6083H18.0298C18.5602 20.6083 19.0689 20.3976 19.444 20.0225C19.8191 19.6474 20.0298 19.1387 20.0298 18.6083V11.4083C20.0298 10.5853 19.6498 9.80828 18.9998 9.30328Z" fill="#D05270" stroke="#D05270" stroke-width="1.5" stroke-linecap="round" stroke-linejoin="round"/>
<path d="M16 15.5933C13.79 16.9263 10.208 16.9263 8 15.5933" stroke="#D05270" stroke-width="1.5" stroke-linecap="round" stroke-linejoin="round"/>
</svg>
