<svg width="27" height="24" viewBox="0 0 27 24" fill="none" xmlns="http://www.w3.org/2000/svg">
<path fill-rule="evenodd" clip-rule="evenodd" d="M2.50732 7C2.50732 4.37665 4.81454 2.25 7.66063 2.25H18.5097C21.3558 2.25 23.663 4.37665 23.663 7V17C23.663 19.6234 21.3558 21.75 18.5097 21.75H7.66063C4.81454 21.75 2.50732 19.6234 2.50732 17V7ZM7.66063 3.75C5.7133 3.75 4.13468 5.20507 4.13468 7V17C4.13468 18.7949 5.7133 20.25 7.66063 20.25H18.5097C20.457 20.25 22.0356 18.7949 22.0356 17V7C22.0356 5.20507 20.457 3.75 18.5097 3.75H7.66063Z" fill="#424242"/>
<path fill-rule="evenodd" clip-rule="evenodd" d="M7.93213 12C7.93213 9.37664 10.2393 7.25 13.0854 7.25C15.9315 7.25 18.2387 9.37664 18.2387 12C18.2387 14.6234 15.9315 16.75 13.0854 16.75C10.2393 16.75 7.93213 14.6234 7.93213 12ZM13.0854 8.75C11.1381 8.75 9.55949 10.2051 9.55949 12C9.55949 13.7949 11.1381 15.25 13.0854 15.25C15.0328 15.25 16.6114 13.7949 16.6114 12C16.6114 10.2051 15.0328 8.75 13.0854 8.75Z" fill="#424242"/>
<path d="M19.0522 7.5C19.6514 7.5 20.1371 7.0523 20.1371 6.5C20.1371 5.9477 19.6514 5.5 19.0522 5.5C18.453 5.5 17.9673 5.9477 17.9673 6.5C17.9673 7.0523 18.453 7.5 19.0522 7.5Z" fill="#424242"/>
</svg>
