<svg width="24" height="25" viewBox="0 0 24 25" fill="none" xmlns="http://www.w3.org/2000/svg">
<path d="M14 8.59326V6.59326C14 6.06283 13.7893 5.55412 13.4142 5.17905C13.0391 4.80398 12.5304 4.59326 12 4.59326H5C4.46957 4.59326 3.96086 4.80398 3.58579 5.17905C3.21071 5.55412 3 6.06283 3 6.59326V18.5933C3 19.1237 3.21071 19.6324 3.58579 20.0075C3.96086 20.3825 4.46957 20.5933 5 20.5933H12C12.5304 20.5933 13.0391 20.3825 13.4142 20.0075C13.7893 19.6324 14 19.1237 14 18.5933V16.5933" stroke="white" stroke-width="1.5" stroke-linecap="round" stroke-linejoin="round"/>
<path d="M7 12.5933H21M21 12.5933L18 9.59326M21 12.5933L18 15.5933" stroke="white" stroke-width="1.5" stroke-linecap="round" stroke-linejoin="round"/>
</svg>
