<svg width="24" height="25" viewBox="0 0 24 25" fill="none" xmlns="http://www.w3.org/2000/svg">
<path d="M12 20.5933L9 17.5933H7C6.20435 17.5933 5.44129 17.2772 4.87868 16.7146C4.31607 16.152 4 15.3889 4 14.5933V8.59326C4 7.79761 4.31607 7.03455 4.87868 6.47194C5.44129 5.90933 6.20435 5.59326 7 5.59326H17C17.7956 5.59326 18.5587 5.90933 19.1213 6.47194C19.6839 7.03455 20 7.79761 20 8.59326V14.5933C20 15.3889 19.6839 16.152 19.1213 16.7146C18.5587 17.2772 17.7956 17.5933 17 17.5933H15L12 20.5933Z" stroke="#D05270" stroke-width="1.5" stroke-linecap="round" stroke-linejoin="round"/>
<path d="M8 9.59326H16" stroke="#D05270" stroke-width="1.5" stroke-linecap="round" stroke-linejoin="round"/>
<path d="M8 13.5933H14" stroke="#D05270" stroke-width="1.5" stroke-linecap="round" stroke-linejoin="round"/>
</svg>
