<svg width="19" height="19" viewBox="0 0 19 19" fill="none" xmlns="http://www.w3.org/2000/svg">
<g clip-path="url(#clip0_217_145)">
<path d="M8.01031 4.11273C8.01031 3.7045 8.17248 3.31299 8.46115 3.02432C8.74981 2.73566 9.14132 2.57349 9.54956 2.57349C9.95779 2.57349 10.3493 2.73566 10.638 3.02432C10.9266 3.31299 11.0888 3.7045 11.0888 4.11273C11.9726 4.53066 12.7261 5.18122 13.2684 5.99469C13.8107 6.80816 14.1215 7.75387 14.1673 8.73047V11.0393C14.2252 11.5178 14.3947 11.976 14.662 12.377C14.9294 12.7781 15.2871 13.1107 15.7065 13.3482H3.39258C3.81198 13.1107 4.16975 12.7781 4.4371 12.377C4.70445 11.976 4.8739 11.5178 4.93182 11.0393V8.73047C4.97766 7.75387 5.28839 6.80816 5.8307 5.99469C6.37302 5.18122 7.12647 4.53066 8.01031 4.11273" stroke="#D05270" stroke-width="1.15443" stroke-linecap="round" stroke-linejoin="round"/>
<path d="M7.24072 13.3481V14.1178C7.24072 14.7301 7.48398 15.3174 7.91697 15.7504C8.34997 16.1834 8.93724 16.4266 9.54959 16.4266C10.1619 16.4266 10.7492 16.1834 11.1822 15.7504C11.6152 15.3174 11.8585 14.7301 11.8585 14.1178V13.3481" stroke="#D05270" stroke-width="1.15443" stroke-linecap="round" stroke-linejoin="round"/>
</g>
<defs>
<clipPath id="clip0_217_145">
<rect width="18.4709" height="18.4709" fill="white" transform="translate(0.313965 0.264648)"/>
</clipPath>
</defs>
</svg>
