<svg width="24" height="25" viewBox="0 0 24 25" fill="none" xmlns="http://www.w3.org/2000/svg">
<path d="M9 4.59326H5C4.44772 4.59326 4 5.04098 4 5.59326V9.59326C4 10.1455 4.44772 10.5933 5 10.5933H9C9.55228 10.5933 10 10.1455 10 9.59326V5.59326C10 5.04098 9.55228 4.59326 9 4.59326Z" stroke="white" stroke-width="1.5" stroke-linecap="round" stroke-linejoin="round"/>
<path d="M9 14.5933H5C4.44772 14.5933 4 15.041 4 15.5933V19.5933C4 20.1455 4.44772 20.5933 5 20.5933H9C9.55228 20.5933 10 20.1455 10 19.5933V15.5933C10 15.041 9.55228 14.5933 9 14.5933Z" stroke="white" stroke-width="1.5" stroke-linecap="round" stroke-linejoin="round"/>
<path d="M19 14.5933H15C14.4477 14.5933 14 15.041 14 15.5933V19.5933C14 20.1455 14.4477 20.5933 15 20.5933H19C19.5523 20.5933 20 20.1455 20 19.5933V15.5933C20 15.041 19.5523 14.5933 19 14.5933Z" stroke="white" stroke-width="1.5" stroke-linecap="round" stroke-linejoin="round"/>
<path d="M14 7.59326H20" stroke="white" stroke-width="1.5" stroke-linecap="round" stroke-linejoin="round"/>
<path d="M17 4.59326V10.5933" stroke="white" stroke-width="1.5" stroke-linecap="round" stroke-linejoin="round"/>
</svg>
