<svg width="27" height="24" viewBox="0 0 27 24" fill="none" xmlns="http://www.w3.org/2000/svg">
<path d="M22.4867 3.6545C22.4867 3.6545 24.5943 2.897 24.4186 4.73664C24.3601 5.49415 23.8332 8.1454 23.4234 11.0131L22.0183 19.5079C22.0183 19.5079 21.9013 20.7524 20.8474 20.9688C19.7936 21.1852 18.2129 20.2113 17.9202 19.9949C17.686 19.8326 13.5294 17.3977 12.0658 16.2074C11.6559 15.8827 11.1876 15.2335 12.1243 14.476L18.2715 9.06525C18.974 8.41595 19.6765 6.90095 16.7493 8.7406L8.55311 13.8808C8.55311 13.8808 7.6164 14.4219 5.8601 13.9349L2.05469 12.8527C2.05469 12.8527 0.649624 12.0411 3.04995 11.2295C8.9044 8.68645 16.1054 6.0893 22.4867 3.6545Z" fill="#424242"/>
</svg>
