<svg width="27" height="24" viewBox="0 0 27 24" fill="none" xmlns="http://www.w3.org/2000/svg">
<path fill-rule="evenodd" clip-rule="evenodd" d="M20.8622 4.6854C20.3435 4.0298 19.7205 3.52093 18.9853 3.18877C18.1556 2.81395 17.2337 2.68708 16.2475 2.7784C14.6555 2.92581 13.5435 3.74408 12.9083 4.94524C12.3658 5.97121 12.1766 7.2564 12.2414 8.63205C10.761 9.16056 9.4547 8.87434 8.29697 8.19309C6.9725 7.41372 5.87112 6.12353 5.0964 4.95957C4.92581 4.70328 4.60565 4.56566 4.28299 4.60995C3.96034 4.65424 3.69757 4.87187 3.6154 5.16285C3.07324 7.0828 2.49244 9.56307 3.64348 12.3192C4.30271 13.8976 5.68856 15.2101 7.67969 16.2928C5.70071 17.1109 4.13231 17.3554 2.93097 17.1443C2.53819 17.0753 2.14923 17.2796 2.01337 17.6262C1.87751 17.9729 2.03501 18.3591 2.38494 18.5374C2.40967 18.55 2.43821 18.5647 2.47043 18.5812C3.12025 18.9146 5.27052 20.0177 7.93827 20.6952C10.7172 21.4008 14.2351 21.6897 17.2159 19.973C22.7435 16.7896 22.7064 11.3947 22.6888 8.82575C22.6883 8.75728 22.6879 8.69081 22.6875 8.62646C22.7644 8.50341 22.8597 8.3759 22.9827 8.21419C22.9885 8.20653 22.9944 8.1988 23.0003 8.19101C23.1592 7.98228 23.355 7.72491 23.5351 7.4106C23.9242 6.7314 24.2055 5.85076 24.2055 4.47187C24.2055 4.17392 24.0142 3.90423 23.7181 3.78478C23.4219 3.66533 23.0772 3.71878 22.8397 3.92096C22.0772 4.5702 21.4352 4.76123 20.8622 4.6854ZM18.269 4.53568C17.7506 4.30145 17.1403 4.20327 16.4101 4.27089C15.4276 4.36187 14.7813 4.8269 14.3712 5.60245C13.9382 6.4213 13.7681 7.60343 13.9003 9.03993C13.9283 9.34468 13.7528 9.63459 13.4567 9.77261C11.1674 10.8397 9.08964 10.4391 7.4213 9.45742C6.3911 8.85121 5.50885 8.02233 4.78965 7.17926C4.51689 8.60746 4.47726 10.1402 5.1622 11.7803C5.75809 13.2071 7.23339 14.5138 9.8115 15.6339C10.089 15.7544 10.2693 16.0086 10.2779 16.2912C10.2866 16.5738 10.122 16.8369 9.85231 16.9717C8.44793 17.6732 7.12851 18.1787 5.90451 18.4595C6.63606 18.7402 7.47246 19.021 8.37052 19.249C10.9867 19.9134 13.9486 20.0859 16.3536 18.7009C21.0899 15.9733 21.0712 11.386 21.0606 8.78519C21.0601 8.66689 21.0596 8.55269 21.0596 8.44297C21.0596 8.33117 21.0868 8.22078 21.139 8.11989C21.2928 7.82284 21.4853 7.56985 21.6452 7.35968L21.651 7.35196C21.8193 7.13075 21.9644 6.94003 22.096 6.71021C22.2094 6.51228 22.3198 6.27251 22.4063 5.9588C21.6836 6.23035 20.9232 6.28601 20.1402 6.07039C19.9564 6.01978 19.7979 5.91094 19.6927 5.7631C19.2675 5.16553 18.7892 4.77066 18.269 4.53568Z" fill="#424242"/>
</svg>
