<svg width="16" height="16" viewBox="0 0 16 16" fill="none" xmlns="http://www.w3.org/2000/svg">
<path d="M10 8.66667H6C5.82319 8.66667 5.65362 8.7369 5.5286 8.86193C5.40357 8.98695 5.33333 9.15652 5.33333 9.33333C5.33333 9.51014 5.40357 9.67971 5.5286 9.80474C5.65362 9.92976 5.82319 10 6 10H7.33333V11.3333C7.33333 11.5101 7.40357 11.6797 7.5286 11.8047C7.65362 11.9298 7.82319 12 8 12C8.17681 12 8.34638 11.9298 8.4714 11.8047C8.59643 11.6797 8.66667 11.5101 8.66667 11.3333V10H10C10.1768 10 10.3464 9.92976 10.4714 9.80474C10.5964 9.67971 10.6667 9.51014 10.6667 9.33333C10.6667 9.15652 10.5964 8.98695 10.4714 8.86193C10.3464 8.7369 10.1768 8.66667 10 8.66667ZM11.3333 4H4.66667C4.48986 4 4.32029 4.07024 4.19526 4.19526C4.07024 4.32029 4 4.48986 4 4.66667C4 4.84348 4.07024 5.01305 4.19526 5.13807C4.32029 5.2631 4.48986 5.33333 4.66667 5.33333H7.33333V6.66667C7.33333 6.84348 7.40357 7.01305 7.5286 7.13807C7.65362 7.2631 7.82319 7.33333 8 7.33333C8.17681 7.33333 8.34638 7.2631 8.4714 7.13807C8.59643 7.01305 8.66667 6.84348 8.66667 6.66667V5.33333H11.3333C11.5101 5.33333 11.6797 5.2631 11.8047 5.13807C11.9298 5.01305 12 4.84348 12 4.66667C12 4.48986 11.9298 4.32029 11.8047 4.19526C11.6797 4.07024 11.5101 4 11.3333 4Z" fill="#424242"/>
</svg>
