<svg width="23" height="23" viewBox="0 0 23 23" fill="none" xmlns="http://www.w3.org/2000/svg">
<path d="M13.1362 20.7334L12.0522 21.8174C11.5933 22.2764 10.8511 22.2764 10.397 21.8174L0.904785 12.3301C0.445801 11.8711 0.445801 11.1289 0.904785 10.6748L10.397 1.18262C10.856 0.723633 11.5981 0.723633 12.0522 1.18262L13.1362 2.2666C13.6001 2.73047 13.5903 3.4873 13.1167 3.94141L7.23291 9.54688H21.2661C21.9155 9.54688 22.438 10.0693 22.438 10.7188V12.2813C22.438 12.9307 21.9155 13.4531 21.2661 13.4531H7.23291L13.1167 19.0586C13.5952 19.5127 13.605 20.2695 13.1362 20.7334Z" fill="black"/>
</svg>
