<svg width="27" height="24" viewBox="0 0 27 24" fill="none" xmlns="http://www.w3.org/2000/svg">
<path d="M6.11452 5.2072L6.0801 4.45799L6.0801 4.45799L6.11452 5.2072ZM20.1496 5.20725L20.184 4.45804L20.184 4.45804L20.1496 5.20725ZM23.2311 7.9536L23.978 7.88587V7.88586L23.2311 7.9536ZM23.226 16.0261L23.9729 16.0945L23.226 16.0261ZM20.1951 18.7675L20.15 18.0188L20.15 18.0188L20.1951 18.7675ZM6.06907 18.7675L6.02393 19.5162H6.02394L6.06907 18.7675ZM3.0384 16.0275L3.78525 15.9588L3.0384 16.0275ZM3.03328 7.9522L2.28638 7.88408L2.28638 7.88409L3.03328 7.9522ZM6.14894 5.95641C9.1519 5.81844 11.4773 5.75 13.1308 5.75V4.25C11.4431 4.25 9.091 4.31966 6.0801 4.45799L6.14894 5.95641ZM13.1308 5.75C14.7845 5.75 17.1107 5.81849 20.1152 5.95646L20.184 4.45804C17.1716 4.31971 14.8187 4.25 13.1308 4.25V5.75ZM20.1152 5.95646C21.4168 6.01625 22.3863 6.9425 22.4842 8.02134L23.978 7.88586C23.8042 5.9694 22.1394 4.54785 20.184 4.45804L20.1152 5.95646ZM22.4842 8.02133C22.6203 9.52244 22.6874 10.8351 22.6874 11.9619H24.1874C24.1874 10.7783 24.117 9.41876 23.978 7.88587L22.4842 8.02133ZM22.6874 11.9619C22.6874 13.1026 22.6186 14.4336 22.4791 15.9577L23.9729 16.0945C24.1153 14.5384 24.1874 13.16 24.1874 11.9619H22.6874ZM22.4791 15.9577C22.3816 17.0234 21.4335 17.9415 20.15 18.0188L20.2403 19.5161C22.1707 19.3997 23.7996 17.9869 23.9729 16.0945L22.4791 15.9577ZM20.15 18.0188C17.5901 18.1731 15.2506 18.25 13.1308 18.25V19.75C15.2861 19.75 17.6562 19.6719 20.2403 19.5161L20.15 18.0188ZM13.1308 18.25C11.0113 18.25 8.67267 18.1731 6.11419 18.0189L6.02394 19.5162C8.60661 19.6719 10.9758 19.75 13.1308 19.75V18.25ZM6.1142 18.0189C4.83118 17.9416 3.88328 17.024 3.78525 15.9588L2.29156 16.0962C2.46564 17.9879 4.0942 19.3998 6.02393 19.5162L6.1142 18.0189ZM3.78525 15.9588C3.64389 14.4228 3.57422 13.0915 3.57422 11.9619H2.07422C2.07422 13.1499 2.14733 14.529 2.29156 16.0962L3.78525 15.9588ZM3.57422 11.9619C3.57422 10.8459 3.64223 9.53305 3.78018 8.02031L2.28638 7.88409C2.14559 9.42795 2.07422 10.7882 2.07422 11.9619H3.57422ZM3.78018 8.02032C3.87854 6.94186 4.84788 6.01619 6.14895 5.95641L6.0801 4.45799C4.12545 4.54781 2.46109 5.96844 2.28638 7.88408L3.78018 8.02032Z" fill="#424242"/>
<path d="M12.2262 14.5605L11.836 13.92L11.8359 13.9201L12.2262 14.5605ZM15.8051 12.3803L16.1953 13.0208L16.1953 13.0208L15.8051 12.3803ZM15.9366 11.7864L16.5461 11.3494L16.5461 11.3493L15.9366 11.7864ZM15.8082 11.6671L15.4131 12.3046L15.4132 12.3047L15.8082 11.6671ZM12.2293 9.44893L12.6244 8.81144L12.6244 8.81143L12.2293 9.44893ZM11.584 9.56548L10.9781 9.12346L10.9779 9.12371L11.584 9.56548ZM10.7549 9.80458V14.203H12.2549V9.80458H10.7549ZM10.7549 14.203C10.7549 14.9103 11.3576 15.3816 11.9698 15.3816V13.8816C12.0686 13.8816 12.2549 13.9691 12.2549 14.203H10.7549ZM11.9698 15.3816C12.1952 15.3816 12.4199 15.3208 12.6166 15.201L11.8359 13.9201C11.8804 13.893 11.9269 13.8816 11.9698 13.8816V15.3816ZM12.6164 15.201L16.1953 13.0208L15.4149 11.7398L11.836 13.92L12.6164 15.201ZM16.1953 13.0208C16.7605 12.6765 16.9565 11.9217 16.5461 11.3494L15.3271 12.2235C15.2718 12.1463 15.2505 12.0438 15.272 11.9463C15.2933 11.8503 15.3513 11.7785 15.4149 11.7398L16.1953 13.0208ZM16.5461 11.3493C16.453 11.2195 16.3356 11.1115 16.2031 11.0295L15.4132 12.3047C15.3826 12.2857 15.3526 12.259 15.3271 12.2235L16.5461 11.3493ZM16.2033 11.0296L12.6244 8.81144L11.8342 10.0864L15.4131 12.3046L16.2033 11.0296ZM12.6244 8.81143C12.0944 8.48302 11.3639 8.59457 10.9781 9.12346L12.1899 10.0075C12.137 10.08 12.0677 10.1123 12.0137 10.1221C11.9598 10.1318 11.8951 10.1242 11.8342 10.0864L12.6244 8.81143ZM10.9779 9.12371C10.8357 9.3188 10.7549 9.55587 10.7549 9.80458H12.2549C12.2549 9.88299 12.2292 9.95356 12.1901 10.0073L10.9779 9.12371Z" fill="#424242"/>
</svg>
